HIERARCHY
ROOT reference
{
  OFFSET 0 0 0
  CHANNELS 6 Xposition Yposition Zposition Zrotation Xrotation Yrotation
  JOINT Hips
  {
    OFFSET 366.965 89.8555 201.872
    CHANNELS 3 Zrotation Xrotation Yrotation
    JOINT RightUpLeg
    {
      OFFSET -9.27238 -1.56811 0.0123499
      CHANNELS 3 Zrotation Xrotation Yrotation
      JOINT RightLeg
      {
        OFFSET 0.00682797 -41.8882 0.0419786
        CHANNELS 3 Zrotation Xrotation Yrotation
        JOINT RightFoot
        {
          OFFSET 0.530869 -42.1265 0.242224
          CHANNELS 3 Zrotation Xrotation Yrotation
          End Site
          {
            OFFSET 0 -7.69 17.5
          }
        }
      }
    }
    JOINT LeftUpLeg
    {
      OFFSET 9.28391 -1.61639 -0.0258413
      CHANNELS 3 Zrotation Xrotation Yrotation
      JOINT LeftLeg
      {
        OFFSET 0.0291166 -41.8727 -0.014263
        CHANNELS 3 Zrotation Xrotation Yrotation
        JOINT LeftFoot
        {
          OFFSET -0.125672 -41.4933 -0.195947
          CHANNELS 3 Zrotation Xrotation Yrotation
          End Site
          {
            OFFSET 0 -7.69 17.5
          }
        }
      }
    }
    JOINT Spine
    {
      OFFSET 0.0325614 14.2957 0.0242834
      CHANNELS 3 Zrotation Xrotation Yrotation
      JOINT Spine1
      {
        OFFSET 0.00746153 9.71731 0.0172653
        CHANNELS 3 Zrotation Xrotation Yrotation
        JOINT Spine2
        {
          OFFSET 0.0283815 10.1155 -0.00252583
          CHANNELS 3 Zrotation Xrotation Yrotation
          JOINT Spine3
          {
            OFFSET 0.0279172 9.71841 -0.00465252
            CHANNELS 3 Zrotation Xrotation Yrotation
            JOINT Neck
            {
              OFFSET 0.0182001 10.3765 0.0184284
              CHANNELS 3 Zrotation Xrotation Yrotation
              JOINT Head
              {
                OFFSET 0.0113688 9.47343 0.00632939
                CHANNELS 3 Zrotation Xrotation Yrotation
                End Site
                {
                  OFFSET 0 15.95 0
                }
              }
            }
            JOINT RightShoulder
            {
              OFFSET -3.17351 6.93492 0.00767284
              CHANNELS 3 Zrotation Xrotation Yrotation
              JOINT RightArm
              {
                OFFSET -12.7835 -0.0133269 0.0174019
                CHANNELS 3 Zrotation Xrotation Yrotation
                JOINT RightForeArm
                {
                  OFFSET -26.5112 -0.0170228 0.0247955
                  CHANNELS 3 Zrotation Xrotation Yrotation
                  JOINT RightHand
                  {
                    OFFSET -25.9918 -0.0199622 0.0218897
                    CHANNELS 3 Zrotation Xrotation Yrotation
                    JOINT RightHandThumb1
                    {
                      OFFSET -2.48905 0.190105 3.12053
                      CHANNELS 3 Zrotation Xrotation Yrotation
                      JOINT RightHandThumb2
                      {
                        OFFSET -3.68274 0 0
                        CHANNELS 3 Zrotation Xrotation Yrotation
                        JOINT RightHandThumb3
                        {
                          OFFSET -2.55832 0 0
                          CHANNELS 3 Zrotation Xrotation Yrotation
                          End Site
                          {
                            OFFSET -2.194 0 0
                          }
                        }
                      }
                    }
                    JOINT RightInHandIndex
                    {
                      OFFSET -3.22368 0.508421 1.97842
                      CHANNELS 3 Zrotation Xrotation Yrotation
                      JOINT RightHandIndex1
                      {
                        OFFSET -5.21684 -0.091368 0.999158
                        CHANNELS 3 Zrotation Xrotation Yrotation
                        JOINT RightHandIndex2
                        {
                          OFFSET -3.61937 0 0
                          CHANNELS 3 Zrotation Xrotation Yrotation
                          JOINT RightHandIndex3
                          {
                            OFFSET -2.0521 0 0
                            CHANNELS 3 Zrotation Xrotation Yrotation
                            End Site
                            {
                              OFFSET -1.805 0 0
                            }
                          }
                        }
                      }
                    }
                    JOINT RightInHandMiddle
                    {
                      OFFSET -3.38211 0.517263 0.756737
                      CHANNELS 3 Zrotation Xrotation Yrotation
                      JOINT RightHandMiddle1
                      {
                        OFFSET -5.17411 -0.084 0.313895
                        CHANNELS 3 Zrotation Xrotation Yrotation
                        JOINT RightHandMiddle2
                        {
                          OFFSET -3.94947 0 0
                          CHANNELS 3 Zrotation Xrotation Yrotation
                          JOINT RightHandMiddle3
                          {
                            OFFSET -2.47579 0 0
                            CHANNELS 3 Zrotation Xrotation Yrotation
                            End Site
                            {
                              OFFSET -1.975 0 0
                            }
                          }
                        }
                      }
                    }
                    JOINT RightInHandRing
                    {
                      OFFSET -3.36516 0.537895 -0.128947
                      CHANNELS 3 Zrotation Xrotation Yrotation
                      JOINT RightHandRing1
                      {
                        OFFSET -4.63474 -0.022105 -0.478947
                        CHANNELS 3 Zrotation Xrotation Yrotation
                        JOINT RightHandRing2
                        {
                          OFFSET -3.44238 0 0
                          CHANNELS 3 Zrotation Xrotation Yrotation
                          JOINT RightHandRing3
                          {
                            OFFSET -2.3881 0 0
                            CHANNELS 3 Zrotation Xrotation Yrotation
                            End Site
                            {
                              OFFSET -1.857 0 0
                            }
                          }
                        }
                      }
                    }
                    JOINT RightInHandPinky
                    {
                      OFFSET -3.16105 0.469368 -1.20179
                      CHANNELS 3 Zrotation Xrotation Yrotation
                      JOINT RightHandPinky1
                      {
                        OFFSET -4.14105 -0.022105 -1.09053
                        CHANNELS 3 Zrotation Xrotation Yrotation
                        JOINT RightHandPinky2
                        {
                          OFFSET -2.75653 0 0
                          CHANNELS 3 Zrotation Xrotation Yrotation
                          JOINT RightHandPinky3
                          {
                            OFFSET -1.74189 0 0
                            CHANNELS 3 Zrotation Xrotation Yrotation
                            End Site
                            {
                              OFFSET -1.645 0 0
                            }
                          }
                        }
                      }
                    }
                  }
                }
              }
            }
            JOINT LeftShoulder
            {
              OFFSET 3.23633 6.91116 -0.0162332
              CHANNELS 3 Zrotation Xrotation Yrotation
              JOINT LeftArm
              {
                OFFSET 12.8112 -0.0136289 -0.0286256
                CHANNELS 3 Zrotation Xrotation Yrotation
                JOINT LeftForeArm
                {
                  OFFSET 26.502 -0.0235899 -0.00806802
                  CHANNELS 3 Zrotation Xrotation Yrotation
                  JOINT LeftHand
                  {
                    OFFSET 25.9974 -0.0321613 -0.027004
                    CHANNELS 3 Zrotation Xrotation Yrotation
                    JOINT LeftHandThumb1
                    {
                      OFFSET 2.48905 0.190105 3.12053
                      CHANNELS 3 Zrotation Xrotation Yrotation
                      JOINT LeftHandThumb2
                      {
                        OFFSET 3.68274 0 0
                        CHANNELS 3 Zrotation Xrotation Yrotation
                        JOINT LeftHandThumb3
                        {
                          OFFSET 2.55832 0 0
                          CHANNELS 3 Zrotation Xrotation Yrotation
                          End Site
                          {
                            OFFSET 2.194 0 0
                          }
                        }
                      }
                    }
                    JOINT LeftInHandIndex
                    {
                      OFFSET 3.22368 0.508421 1.97842
                      CHANNELS 3 Zrotation Xrotation Yrotation
                      JOINT LeftHandIndex1
                      {
                        OFFSET 5.21684 -0.091368 0.999158
                        CHANNELS 3 Zrotation Xrotation Yrotation
                        JOINT LeftHandIndex2
                        {
                          OFFSET 3.61937 0 0
                          CHANNELS 3 Zrotation Xrotation Yrotation
                          JOINT LeftHandIndex3
                          {
                            OFFSET 2.0521 0 0
                            CHANNELS 3 Zrotation Xrotation Yrotation
                            End Site
                            {
                              OFFSET 1.805 0 0
                            }
                          }
                        }
                      }
                    }
                    JOINT LeftInHandMiddle
                    {
                      OFFSET 3.38211 0.517263 0.756737
                      CHANNELS 3 Zrotation Xrotation Yrotation
                      JOINT LeftHandMiddle1
                      {
                        OFFSET 5.17411 -0.084 0.313895
                        CHANNELS 3 Zrotation Xrotation Yrotation
                        JOINT LeftHandMiddle2
                        {
                          OFFSET 3.94947 0 0
                          CHANNELS 3 Zrotation Xrotation Yrotation
                          JOINT LeftHandMiddle3
                          {
                            OFFSET 2.47579 0 0
                            CHANNELS 3 Zrotation Xrotation Yrotation
                            End Site
                            {
                              OFFSET 1.975 0 0
                            }
                          }
                        }
                      }
                    }
                    JOINT LeftInHandRing
                    {
                      OFFSET 3.36516 0.537895 -0.128947
                      CHANNELS 3 Zrotation Xrotation Yrotation
                      JOINT LeftHandRing1
                      {
                        OFFSET 4.63474 -0.022105 -0.478947
                        CHANNELS 3 Zrotation Xrotation Yrotation
                        JOINT LeftHandRing2
                        {
                          OFFSET 3.44238 0 0
                          CHANNELS 3 Zrotation Xrotation Yrotation
                          JOINT LeftHandRing3
                          {
                            OFFSET 2.3881 0 0
                            CHANNELS 3 Zrotation Xrotation Yrotation
                            End Site
                            {
                              OFFSET 1.857 0 0
                            }
                          }
                        }
                      }
                    }
                    JOINT LeftInHandPinky
                    {
                      OFFSET 3.16105 0.469368 -1.20179
                      CHANNELS 3 Zrotation Xrotation Yrotation
                      JOINT LeftHandPinky1
                      {
                        OFFSET 4.14105 -0.022105 -1.09053
                        CHANNELS 3 Zrotation Xrotation Yrotation
                        JOINT LeftHandPinky2
                        {
                          OFFSET 2.75653 0 0
                          CHANNELS 3 Zrotation Xrotation Yrotation
                          JOINT LeftHandPinky3
                          {
                            OFFSET 1.74189 0 0
                            CHANNELS 3 Zrotation Xrotation Yrotation
                            End Site
                            {
                              OFFSET 1.645 0 0
                            }
                          }
                        }
                      }
                    }
                  }
                }
              }
            }
          }
        }
      }
    }
  }
}
MOTION
Frames: 2
Frame Time: 0.00833333
3.000000000000000000e+02 0.000000000000000000e+00 0.000000000000000000e+00 0.000000000000000000e+00 0.000000000000000000e+00 0.000000000000000000e+00 7.301099213996319927e-03 5.681594429732582732e-03 3.253699550981527938e-02 -1.456706142330457983e-02 1.080511102686537196e-02 -4.705111087342962045e-02 -3.626121508371684538e-02 -1.208125722497799259e-02 -2.404422198349414480e-02 -7.428648687637207093e-02 2.453276766716616306e-02 8.663533926191678558e-02 -4.520573429200415438e-02 4.129129716025517483e-02 -1.175895651677005133e-01 -1.994311154999824781e-02 -4.712094510009912085e-02 3.320399254445722398e-02 -2.362911823527207369e-02 -3.297017768277152316e-02 1.183109509068321769e-02 1.831376234003379358e-02 -6.493247821344003828e-03 -1.494527533423104654e-02 4.280694384656534741e-03 -2.314551175015939870e-03 -1.968492521617917768e-03 7.929637471806071439e-03 5.355522834986215300e-03 -7.295093488537721452e-03 1.079284158667909421e-04 -5.421483583342763687e-06 1.527032260884847036e-04 -1.035032725893580887e-03 -1.486815067479502076e-03 -7.274679766819805438e-02 -2.075478336880145699e-02 7.878728001219605787e-03 4.005108526827531185e-02 2.249897981674797709e-02 -1.784103012182478715e-02 1.891241880020478605e-01 2.219600167186948358e-01 -7.487657450266594836e-04 1.219879024444898014e-01 1.816106103427937157e-01 -7.668188566539789475e-02 -6.020808830574927994e-02 4.381072814620742273e-01 6.590008925055612643e-01 3.225364738742511062e-01 0.000000000000000000e+00 0.000000000000000000e+00 0.000000000000000000e+00 1.224471178082202561e-15 -1.582698429801204042e-15 0.000000000000000000e+00 -2.088710348477703073e-15 1.774785861920480639e-15 0.000000000000000000e+00 -3.185430782410512833e-15 8.936870017856232234e-16 7.538650651420499484e-16 0.000000000000000000e+00 0.000000000000000000e+00 0.000000000000000000e+00 0.000000000000000000e+00 -1.817590521379309313e-16 2.057722217658251840e-16 0.000000000000000000e+00 -4.366314918690707486e-15 2.769955163736151776e-16 -3.185430782410512833e-15 8.936870017856232234e-16 7.538650651420499484e-16 0.000000000000000000e+00 -2.255941234718131129e-16 1.286206531215675166e-15 0.000000000000000000e+00 2.073450321194554851e-15 -5.844128501474126072e-16 0.000000000000000000e+00 -6.422802638327244982e-16 -1.160391022752750365e-15 -3.185430782410512833e-15 8.936870017856232234e-16 7.538650651420499484e-16 0.000000000000000000e+00 0.000000000000000000e+00 0.000000000000000000e+00 0.000000000000000000e+00 -1.630080093572019803e-15 6.617011328081216516e-16 0.000000000000000000e+00 -1.640546634451910506e-15 -3.242707981326125036e-16 -3.185430782410512833e-15 8.936870017856232234e-16 7.538650651420499484e-16 0.000000000000000000e+00 0.000000000000000000e+00 0.000000000000000000e+00 0.000000000000000000e+00 1.547917827056861836e-15 -2.054446625611156084e-15 0.000000000000000000e+00 1.078698899751441719e-15 -2.212882374441990013e-16 -7.644797452001472760e-02 -2.430091174076923211e-02 -1.660985143810844999e-01 -6.193087850381393672e-02 5.797171045357153718e-02 2.129818332524325009e-01 -2.916791554934443365e-02 -4.237478748364034188e-03 -9.991658790774897436e-02 -3.886687359822330566e-03 1.955960182953120699e-02 -1.827527170099542408e-02 0.000000000000000000e+00 0.000000000000000000e+00 0.000000000000000000e+00 3.225865007056650121e-15 8.655924312101834153e-16 0.000000000000000000e+00 2.767244686621583977e-15 -4.566531645722039035e-15 0.000000000000000000e+00 -1.061426290047068027e-15 -1.019510715087456614e-15 7.522520887340748358e-16 0.000000000000000000e+00 0.000000000000000000e+00 0.000000000000000000e+00 0.000000000000000000e+00 -2.060650575615135158e-15 6.074320719782011634e-18 0.000000000000000000e+00 -1.545595902185144568e-15 1.609412529821666153e-15 -1.061426290047068027e-15 -1.019510715087456614e-15 7.522520887340748358e-16 0.000000000000000000e+00 -9.006847177012940442e-16 -1.164401504704563528e-16 0.000000000000000000e+00 -5.837155077212712115e-16 -8.323699452187953688e-16 0.000000000000000000e+00 -2.211316206624562893e-15 5.553354167408515447e-16 -1.061426290047068027e-15 -1.019510715087456614e-15 7.522520887340748358e-16 0.000000000000000000e+00 0.000000000000000000e+00 0.000000000000000000e+00 0.000000000000000000e+00 -1.870106753243469478e-16 1.876539170088217596e-16 0.000000000000000000e+00 -9.761084371419633341e-17 6.246354732126203149e-16 -1.061426290047068027e-15 -1.019510715087456614e-15 7.522520887340748358e-16 0.000000000000000000e+00 0.000000000000000000e+00 0.000000000000000000e+00 0.000000000000000000e+00 4.969410199237450157e-16 -5.349920240786966184e-16 0.000000000000000000e+00 -2.137991122552413893e-16 -2.237342924707622560e-18
3.000000000000000000e+02 0.000000000000000000e+00 0.000000000000000000e+00 0.000000000000000000e+00 0.000000000000000000e+00 0.000000000000000000e+00 8.510410967184616621e-03 9.953821532336440403e-04 2.079946856226919799e-02 -6.468046497030679499e-03 1.293522606279173121e-02 -5.188361635333810229e-02 -4.961095234329822995e-02 -2.817441869104422847e-02 5.185014983111690956e-02 9.484384736274505123e-02 -2.478210080565448198e-03 -4.562803786994026889e-02 -8.361208258382499606e-03 -8.261687493911218372e-02 3.489107689665297933e-03 -2.227736637649085569e-02 1.038537137939818805e-01 2.282841479221799259e-03 1.134945579282393285e-02 -4.282584318756289810e-02 2.992597645646338789e-02 6.945069622815717297e-03 -2.334120333800297070e-02 -1.920005489855476297e-02 1.825247440836998743e-03 -7.241861934318898769e-03 -2.364148849478788037e-03 3.835916820773386735e-03 -1.645597755423678201e-03 -8.007634356087575678e-03 4.219927738948145456e-06 3.874228868588218996e-04 1.598586072534853922e-03 -1.292514136350139328e-03 -5.429318385679698933e-03 -3.186607648002071080e-02 -2.122869429450342099e-02 1.789989512502494079e-02 2.829275475655203265e-02 4.323063512664841734e-02 1.976013221625041311e-02 2.363762644229083498e-01 6.490759558871667112e-02 -4.451296276874400215e-02 -4.784505300606481382e-02 2.611778636942446719e-01 1.159100895618104254e-01 -9.391240221719823755e-02 1.763792463801273358e-01 3.564012873770384671e-01 2.594300788209454312e-01 0.000000000000000000e+00 0.000000000000000000e+00 0.000000000000000000e+00 1.167372338987650311e-15 -8.694381280514254136e-15 0.000000000000000000e+00 5.467842905711961353e-16 -2.249107387461208607e-15 0.000000000000000000e+00 -3.145327295440420518e-15 1.125742325481639817e-15 8.794712558127902528e-16 0.000000000000000000e+00 0.000000000000000000e+00 0.000000000000000000e+00 0.000000000000000000e+00 3.057666641146603467e-15 -2.095329531129172893e-15 0.000000000000000000e+00 -3.353718479094078714e-15 -6.736137768940927262e-16 -3.145327295440420518e-15 1.125742325481639817e-15 8.794712558127902528e-16 0.000000000000000000e+00 -1.100476160490644452e-15 -1.324395581258758911e-15 0.000000000000000000e+00 1.519076312968251955e-15 -2.857143727879542515e-15 0.000000000000000000e+00 -1.918388700518100015e-16 -1.504945915993226836e-15 -3.145327295440420518e-15 1.125742325481639817e-15 8.794712558127902528e-16 0.000000000000000000e+00 0.000000000000000000e+00 0.000000000000000000e+00 0.000000000000000000e+00 -1.668223133796877020e-15 -2.106379532251058975e-15 0.000000000000000000e+00 -2.252475891484877438e-15 -3.225344013002045214e-16 -3.145327295440420518e-15 1.125742325481639817e-15 8.794712558127902528e-16 0.000000000000000000e+00 0.000000000000000000e+00 0.000000000000000000e+00 0.000000000000000000e+00 -1.932268116007285134e-15 -5.616439483882479824e-16 0.000000000000000000e+00 -1.279577781308121677e-15 -1.442072151941073992e-16 -2.173809635414946512e-02 -1.681133259071884191e-03 -5.742847580481023201e-02 1.432274451393404646e-02 1.699871443618666475e-02 4.656133509026864903e-02 4.586695731708887065e-03 -4.160910766567036539e-02 -6.264119659418143637e-03 2.038767493790168833e-02 7.006785229387990123e-03 2.712924455462813536e-02 0.000000000000000000e+00 0.000000000000000000e+00 0.000000000000000000e+00 2.161490020345987925e-16 -5.001575186321979013e-16 0.000000000000000000e+00 2.338761084846729814e-15 -1.730040816374953650e-15 0.000000000000000000e+00 -2.007954426973131842e-15 -1.807963680677893050e-15 -2.339205088858825431e-16 0.000000000000000000e+00 0.000000000000000000e+00 0.000000000000000000e+00 0.000000000000000000e+00 -1.078415647262854482e-15 -8.967943678562684451e-16 0.000000000000000000e+00 -2.982790942488409589e-15 1.942812240067890898e-16 -2.007954426973131842e-15 -1.807963680677893050e-15 -2.339205088858825431e-16 0.000000000000000000e+00 -5.661812174833690763e-16 7.978545429330542739e-16 0.000000000000000000e+00 -1.313145172593849925e-15 1.552884303263109247e-16 0.000000000000000000e+00 -3.479029480298925180e-16 1.326452457965505134e-16 -2.007954426973131842e-15 -1.807963680677893050e-15 -2.339205088858825431e-16 0.000000000000000000e+00 0.000000000000000000e+00 0.000000000000000000e+00 0.000000000000000000e+00 5.577658158670573868e-16 -5.114211710079612255e-16 0.000000000000000000e+00 1.780808095758228832e-15 2.384331105279812445e-16 -2.007954426973131842e-15 -1.807963680677893050e-15 -2.339205088858825431e-16 0.000000000000000000e+00 0.000000000000000000e+00 0.000000000000000000e+00 0.000000000000000000e+00 1.002801724233274463e-16 -4.767519180006840569e-16 0.000000000000000000e+00 -1.071366795412582244e-16 -6.251866790262076304e-16
